<svg width="633" height="240" viewBox="0 0 633 240" fill="none" xmlns="http://www.w3.org/2000/svg">
<circle cx="60" cy="60" r="60" transform="matrix(-1 0 0 1 633 0)" fill="#FF784F"/>
<path d="M66.72 209H31.68V86.84H2.88V57.8H96.24V86.84H66.72V209ZM192.853 124.04V142.76C192.853 186.2 179.173 210.92 143.893 210.92C108.613 210.92 94.9331 186.2 94.9331 142.76V124.04C94.9331 80.6 108.613 55.88 143.893 55.88C179.173 55.88 192.853 80.6 192.853 124.04ZM131.413 107V159.8C131.413 173.24 133.573 182.36 143.893 182.36C154.213 182.36 156.373 173.24 156.373 159.8V107C156.373 93.56 154.213 84.44 143.893 84.44C133.573 84.44 131.413 93.56 131.413 107ZM291.407 209H256.607C254.687 203.24 254.207 194.36 253.247 176.12C252.527 161.72 248.927 154.28 237.887 154.28H233.327V209H198.527V57.8H241.967C275.807 57.8 290.927 75.56 290.927 102.44C290.927 126.2 280.127 137.96 264.767 140.6C280.607 144.2 285.887 155.48 287.087 174.44C288.287 194.36 288.047 202.04 291.407 209ZM233.327 126.44H236.687C250.847 126.44 256.367 121.88 256.367 106.52C256.367 92.84 250.847 86.12 236.687 86.12H233.327V126.44ZM330.514 106.52V160.28C330.514 173.72 332.194 182.36 342.514 182.36C352.834 182.36 354.514 173.72 354.514 160.28V143.96H388.834V150.92C388.834 186.2 377.554 210.92 343.234 210.92C307.954 210.92 294.274 187.16 294.274 143.72V123.08C294.274 79.64 307.954 55.88 343.234 55.88C377.554 55.88 388.834 80.6 388.834 115.88V122.84H354.514V106.52C354.514 93.08 352.834 84.44 342.514 84.44C332.194 84.44 330.514 93.08 330.514 106.52ZM429.866 209H394.586V57.8H429.866V117.8H454.826V57.8H490.106V209H454.826V146.6H429.866V209Z" fill="#101419"/>
</svg>
